0
SECTION
2
HEADER
9
$INSUNITS
70
4
9
$ACADVER
1
AC1014
9
$HANDSEED
5
FFFF
0
ENDSEC
0
SECTION
2
TABLES
0
TABLE
2
VPORT
5
8
100
AcDbSymbolTable
0
ENDTAB
0
TABLE
2
LTYPE
5
5
100
AcDbSymbolTable
0
LTYPE
5
14
100
AcDbSymbolTableRecord
100
AcDbLinetypeTableRecord
2
BYBLOCK
70
0
0
LTYPE
5
15
100
AcDbSymbolTableRecord
100
AcDbLinetypeTableRecord
2
BYLAYER
70
0
0
LTYPE
5
16
100
AcDbSymbolTableRecord
100
AcDbLinetypeTableRecord
2
DASHED
70
0
3
Dashed __ __ __ __ __ __ __ __ __ __ __ __ __ _
72
65
73
2
40
0.75
49
0.5
74
0
49
-0.25
74
0
0
ENDTAB
0
TABLE
2
LAYER
5
2
100
AcDbSymbolTable
70
3
0
LAYER
5
50
100
AcDbSymbolTableRecord
100
AcDbLayerTableRecord
2
1
70
0
62
7
6
DASHED
0
LAYER
5
51
100
AcDbSymbolTableRecord
100
AcDbLayerTableRecord
2
0
70
0
62
7
6
CONTINUOUS
0
ENDTAB
0
TABLE
2
STYLE
5
3
100
AcDbSymbolTable
70
1
0
STYLE
5
11
100
AcDbSymbolTableRecord
100
AcDbTextStyleTableRecord
2
STANDARD
70
0
0
ENDTAB
0
TABLE
2
VIEW
5
6
100
AcDbSymbolTable
70
0
0
ENDTAB
0
TABLE
2
UCS
5
7
100
AcDbSymbolTable
70
0
0
ENDTAB
0
TABLE
2
APPID
5
9
100
AcDbSymbolTable
70
2
0
APPID
5
12
100
AcDbSymbolTableRecord
100
AcDbRegAppTableRecord
2
ACAD
70
0
0
ENDTAB
0
TABLE
2
DIMSTYLE
5
A
100
AcDbSymbolTable
70
1
0
ENDTAB
0
TABLE
2
BLOCK_RECORD
5
1
100
AcDbSymbolTable
70
1
0
BLOCK_RECORD
5
1F
100
AcDbSymbolTableRecord
100
AcDbBlockTableRecord
2
*MODEL_SPACE
0
BLOCK_RECORD
5
1B
100
AcDbSymbolTableRecord
100
AcDbBlockTableRecord
2
*PAPER_SPACE
0
ENDTAB
0
ENDSEC
0
SECTION
2
BLOCKS
0
BLOCK
5
20
100
AcDbEntity
100
AcDbBlockBegin
2
*MODEL_SPACE
0
ENDBLK
5
21
100
AcDbEntity
100
AcDbBlockEnd
0
BLOCK
5
1C
100
AcDbEntity
100
AcDbBlockBegin
2
*PAPER_SPACE
0
ENDBLK
5
1D
100
AcDbEntity
100
AcDbBlockEnd
0
ENDSEC
0
SECTION
2
ENTITIES
0
POINT
5
100
100
AcDbEntity
8
0
100
AcDbPoint
10
0
20
0
30
0
0
LWPOLYLINE
5
101
100
AcDbEntity
8
0
100
AcDbPolyline
90
32
70
1
43
0.0
10
-24.000000000000004
20
29.068005931085679
10
-24
20
-22.430443145030559
42
-0.40441787960762515
10
-29.798677817003217
20
-28.427064642059818
42
0.42939289516365281
10
-36.285006231206623
20
-35.732671402320804
42
-0.32989381095061221
10
-40.030552921979194
20
-41.811791900574107
10
-40.500000603497028
20
-42.00000062584877
10
-63.592820192790136
20
-51.258263706083284
10
-66.053377364968455
20
-52.24473855104101
42
-0.42603666133124707
10
-72.954559297840177
20
-49.128015630144915
10
-73.000001087784767
20
-49.000000730156898
10
-76.201717015041453
20
-39.98038806266338
42
0.31749017985854644
10
-91.751118266883623
20
-29.000000432133668
10
-118.24075813761178
20
-29.000000432133668
42
-0.22530682161170093
10
-119.40298389349989
20
-28.448278499132126
42
0.26408317744882115
10
-125.28128822846097
20
-26.167975534128466
42
-0.45775166833882219
10
-127.00000022525001
20
-24.684006223028661
10
-127.00000192224979
20
27.000000402331352
10
-126.99217320462553
20
27.075980659848579
10
-125.81014959241824
20
29.700903408987422
42
-0.37395788217155079
10
-123.42661964132164
20
30.799737037295294
42
0.68993446125850044
10
-116.21934299789189
20
40.346468090323341
42
-0.39879501693138192
10
-115.67864748190192
20
43.045435440532067
10
-111.90270924904786
20
45.707874930199225
10
-69.222163704399051
20
59.934723444959914
10
-68.954567136009132
20
60.023922301089115
10
-64.810451103729633
20
61.405294311837068
42
-0.44724776787235343
10
-62.869155588354488
20
60.295392909052623
42
0.95424410179216868
10
-50.562187618674905
20
62.32541508031332
42
-0.44880973830745324
10
-49.072382921801321
20
64.000005931085738
10
-44.443535300312192
20
64.000005931085724
10
-29.499999999999993
20
64.000005931085695
42
-0.41421356237309387
10
-24.000000000000004
20
58.500005931085695
0
LWPOLYLINE
5
102
100
AcDbEntity
8
0
100
AcDbPolyline
90
4
70
1
43
0.0
10
-58.025586427
20
-30.578923546999999
10
-58.025586427
20
-44.478923547000008
10
-71.925586426999999
20
-44.478923547000008
10
-71.925586426999999
20
-30.578923546999999
0
LWPOLYLINE
5
103
100
AcDbEntity
8
0
100
AcDbPolyline
90
4
70
1
43
0.0
10
-80.555400443000011
20
-23.942561419
10
-80.555400443000011
20
-10.042561419
10
-66.655400443000005
20
-10.042561419
10
-66.655400443000005
20
-23.942561419
0
LWPOLYLINE
5
104
100
AcDbEntity
8
0
100
AcDbPolyline
90
4
70
1
43
0.0
10
-47.053963881999998
20
-13.520292725000001
10
-60.953963882000004
20
-13.520292725000001
10
-60.953963882000004
20
0.37970727500000001
10
-47.053963881999998
20
0.37970727500000001
0
LWPOLYLINE
5
105
100
AcDbEntity
8
0
100
AcDbPolyline
90
4
70
1
43
0.0
10
-41.126955987000002
20
61.754612729999998
10
-27.226955987
20
61.754612729999998
10
-27.226955987
20
47.854612729999999
10
-41.126955987000002
20
47.854612729999999
0
LWPOLYLINE
5
106
100
AcDbEntity
8
0
100
AcDbPolyline
90
4
70
1
43
0.0
10
-102.539351569
20
-27.032204261
10
-102.539351569
20
-13.132204261
10
-88.639351568999999
20
-13.132204261
10
-88.639351568999999
20
-27.032204261
0
LWPOLYLINE
5
107
100
AcDbEntity
8
0
100
AcDbPolyline
90
4
70
1
43
0.0
10
-58.025586427
20
-44.478923547000008
10
-71.925586426999999
20
-44.478923547000008
10
-71.925586426999999
20
-30.578923546999999
10
-58.025586427
20
-30.578923546999999
0
LWPOLYLINE
5
108
100
AcDbEntity
8
0
100
AcDbPolyline
90
4
70
1
43
0.0
10
-80.555400443000011
20
-10.042561419
10
-66.655400443000005
20
-10.042561419
10
-66.655400443000005
20
-23.942561419
10
-80.555400443000011
20
-23.942561419
0
LWPOLYLINE
5
109
100
AcDbEntity
8
0
100
AcDbPolyline
90
4
70
1
43
0.0
10
-47.053963881999998
20
-13.520292725000001
10
-60.953963882000004
20
-13.520292725000001
10
-60.953963882000004
20
0.37970727500000001
10
-47.053963881999998
20
0.37970727500000001
0
LWPOLYLINE
5
110
100
AcDbEntity
8
0
100
AcDbPolyline
90
4
70
1
43
0.0
10
-124.254228306
20
-8.5165647240000002
10
-110.354228306
20
-8.5165647240000002
10
-110.354228306
20
-22.416564724000004
10
-124.254228306
20
-22.416564724000004
0
LWPOLYLINE
5
111
100
AcDbEntity
8
0
100
AcDbPolyline
90
4
70
1
43
0.0
10
-110.354228306
20
-22.416564724000004
10
-124.254228306
20
-22.416564724000004
10
-124.254228306
20
-8.5165647240000002
10
-110.354228306
20
-8.5165647240000002
0
LWPOLYLINE
5
112
100
AcDbEntity
8
0
100
AcDbPolyline
90
4
70
1
43
0.0
10
-102.539351569
20
-27.032204261
10
-102.539351569
20
-13.132204261
10
-88.639351568999999
20
-13.132204261
10
-88.639351568999999
20
-27.032204261
0
LWPOLYLINE
5
113
100
AcDbEntity
8
0
100
AcDbPolyline
90
4
70
1
43
0.0
10
-58.584107992000007
20
33.905532944000001
10
-58.584107992000007
20
47.805532943999999
10
-44.684107992000001
20
47.805532943999999
10
-44.684107992000001
20
33.905532944000001
0
LWPOLYLINE
5
114
100
AcDbEntity
8
0
100
AcDbPolyline
90
4
70
1
43
0.0
10
-27.226955987
20
61.754612729999998
10
-27.226955987
20
47.854612729999999
10
-41.126955987000002
20
47.854612729999999
10
-41.126955987000002
20
61.754612729999998
0
LWPOLYLINE
5
115
100
AcDbEntity
8
0
100
AcDbPolyline
90
4
70
1
43
0.0
10
-58.584107992000007
20
33.905532944000001
10
-58.584107992000007
20
47.805532943999999
10
-44.684107992000001
20
47.805532943999999
10
-44.684107992000001
20
33.905532944000001
0
ENDSEC
0
SECTION
2
OBJECTS
0
DICTIONARY
5
C
100
AcDbDictionary
3
ACAD_GROUP
350
D
3
ACAD_MLINESTYLE
350
17
0
DICTIONARY
5
D
100
AcDbDictionary
0
DICTIONARY
5
1A
330
C
100
AcDbDictionary
0
DICTIONARY
5
17
100
AcDbDictionary
0
ENDSEC
0
EOF
