0
SECTION
2
HEADER
9
$INSUNITS
70
4
9
$ACADVER
1
AC1014
9
$HANDSEED
5
FFFF
0
ENDSEC
0
SECTION
2
TABLES
0
TABLE
2
VPORT
5
8
100
AcDbSymbolTable
0
ENDTAB
0
TABLE
2
LTYPE
5
5
100
AcDbSymbolTable
0
LTYPE
5
14
100
AcDbSymbolTableRecord
100
AcDbLinetypeTableRecord
2
BYBLOCK
70
0
0
LTYPE
5
15
100
AcDbSymbolTableRecord
100
AcDbLinetypeTableRecord
2
BYLAYER
70
0
0
LTYPE
5
16
100
AcDbSymbolTableRecord
100
AcDbLinetypeTableRecord
2
DASHED
70
0
3
Dashed __ __ __ __ __ __ __ __ __ __ __ __ __ _
72
65
73
2
40
0.75
49
0.5
74
0
49
-0.25
74
0
0
ENDTAB
0
TABLE
2
LAYER
5
2
100
AcDbSymbolTable
70
3
0
LAYER
5
50
100
AcDbSymbolTableRecord
100
AcDbLayerTableRecord
2
1
70
0
62
7
6
DASHED
0
LAYER
5
51
100
AcDbSymbolTableRecord
100
AcDbLayerTableRecord
2
0
70
0
62
7
6
CONTINUOUS
0
ENDTAB
0
TABLE
2
STYLE
5
3
100
AcDbSymbolTable
70
1
0
STYLE
5
11
100
AcDbSymbolTableRecord
100
AcDbTextStyleTableRecord
2
STANDARD
70
0
0
ENDTAB
0
TABLE
2
VIEW
5
6
100
AcDbSymbolTable
70
0
0
ENDTAB
0
TABLE
2
UCS
5
7
100
AcDbSymbolTable
70
0
0
ENDTAB
0
TABLE
2
APPID
5
9
100
AcDbSymbolTable
70
2
0
APPID
5
12
100
AcDbSymbolTableRecord
100
AcDbRegAppTableRecord
2
ACAD
70
0
0
ENDTAB
0
TABLE
2
DIMSTYLE
5
A
100
AcDbSymbolTable
70
1
0
ENDTAB
0
TABLE
2
BLOCK_RECORD
5
1
100
AcDbSymbolTable
70
1
0
BLOCK_RECORD
5
1F
100
AcDbSymbolTableRecord
100
AcDbBlockTableRecord
2
*MODEL_SPACE
0
BLOCK_RECORD
5
1B
100
AcDbSymbolTableRecord
100
AcDbBlockTableRecord
2
*PAPER_SPACE
0
ENDTAB
0
ENDSEC
0
SECTION
2
BLOCKS
0
BLOCK
5
20
100
AcDbEntity
100
AcDbBlockBegin
2
*MODEL_SPACE
0
ENDBLK
5
21
100
AcDbEntity
100
AcDbBlockEnd
0
BLOCK
5
1C
100
AcDbEntity
100
AcDbBlockBegin
2
*PAPER_SPACE
0
ENDBLK
5
1D
100
AcDbEntity
100
AcDbBlockEnd
0
ENDSEC
0
SECTION
2
ENTITIES
0
POINT
5
100
100
AcDbEntity
8
0
100
AcDbPoint
10
-103
20
-1.755818492434571
30
0
0
POINT
5
101
100
AcDbEntity
8
0
100
AcDbPoint
10
-103
20
40
30
0
0
LWPOLYLINE
5
102
100
AcDbEntity
8
0
100
AcDbPolyline
90
44
70
1
43
0.0
10
-24.000000000000004
20
29.068005931085679
10
-24.000000000000004
20
58.500005931085695
10
-24.000000000000004
20
60.000005931085681
42
0.4142135623730947
10
-28.000000000000004
20
64.000005931085695
10
-29.499999999999993
20
64.000005931085695
10
-44.443535300312192
20
64.000005931085724
10
-49.072382921801321
20
64.000005931085738
42
0.44880973830745324
10
-50.562187618674898
20
62.325415080313327
42
-0.95424410179216868
10
-62.869155588354488
20
60.295392909052623
42
0.44724776787235343
10
-64.810451103729633
20
61.405294311837075
10
-68.954567136009132
20
60.023922301089115
10
-69.222163704399051
20
59.934723444959914
10
-111.90270924904786
20
45.707874930199225
10
-115.67864748190192
20
43.045435440532067
42
0.39879501693138192
10
-116.2193429978919
20
40.346468090323327
42
-0.68993446125850044
10
-123.42661964132164
20
30.799737037295294
42
0.37395788217155079
10
-125.81014959241824
20
29.700903408987422
10
-126.99217320462553
20
27.075980659848579
10
-127.00000192224979
20
27.000000402331352
10
-127.00000022525001
20
-24.684006223028661
42
0.45775166833882219
10
-125.28128822846097
20
-26.167975534128452
42
-0.26408317744882115
10
-119.40298389349989
20
-28.448278499132126
42
0.22530682161170093
10
-118.24075813761178
20
-29.000000432133671
10
-91.751118266883623
20
-29.000000432133668
42
-0.31749017985854644
10
-76.201717015041453
20
-39.98038806266338
10
-73.000001087784767
20
-49.000000730156898
10
-72.954559297840177
20
-49.128015630144915
42
0.42603666133124707
10
-66.053377364968455
20
-52.24473855104101
10
-63.592820192790136
20
-51.258263706083284
10
-40.500000603497028
20
-42.00000062584877
10
-40.030552921979194
20
-41.811791900574107
10
-36.228182711836411
20
-40.287363772695237
42
0.39487756351290587
10
-35.070730167582511
20
-37.811687954085677
42
-0.64122970341207575
10
-26.769827667086293
20
-30.151833130299135
42
0.53528771483076087
10
-24.000000089493483
20
-28.305928197650779
10
-24.000000000000004
20
-26.930443145030559
10
-24.00000031213327
20
-23.500000297232102
42
0.41421353572297348
10
-24.500000312133267
20
-23.000000342726707
10
-25.022835400216362
20
-23.000000342726707
42
-0.41421356237309503
10
-29.022835400216358
20
-19.000000342726711
10
-29.022835400216366
20
-2.9456000633271993
42
-0.41020867391670957
10
-25.077605206245671
20
1.0540249526396162
10
-24.493153774246338
20
1.0620282758102548
42
0.41020867391671367
10
-24
20
1.5619814028061052
0
CIRCLE
5
103
100
AcDbEntity
8
0
100
AcDbCircle
10
-30.000000000000004
20
15.999999999999996
30
0
40
1.7000000000000015
210
0
220
0
230
1
0
CIRCLE
5
104
100
AcDbEntity
8
0
100
AcDbCircle
10
-50
20
-41.755818492434571
30
0
40
1.6999999999999971
210
0
220
0
230
1
0
CIRCLE
5
105
100
AcDbEntity
8
0
100
AcDbCircle
10
-103
20
40
30
0
40
1.6999999999999948
210
0
220
0
230
1
0
CIRCLE
5
106
100
AcDbEntity
8
0
100
AcDbCircle
10
-103
20
-1.755818492434571
30
0
40
1.7000000000000006
210
0
220
0
230
1
0
ENDSEC
0
SECTION
2
OBJECTS
0
DICTIONARY
5
C
100
AcDbDictionary
3
ACAD_GROUP
350
D
3
ACAD_MLINESTYLE
350
17
0
DICTIONARY
5
D
100
AcDbDictionary
0
DICTIONARY
5
1A
330
C
100
AcDbDictionary
0
DICTIONARY
5
17
100
AcDbDictionary
0
ENDSEC
0
EOF
