0
SECTION
2
HEADER
9
$INSUNITS
70
4
9
$ACADVER
1
AC1014
9
$HANDSEED
5
FFFF
0
ENDSEC
0
SECTION
2
TABLES
0
TABLE
2
VPORT
5
8
100
AcDbSymbolTable
0
ENDTAB
0
TABLE
2
LTYPE
5
5
100
AcDbSymbolTable
0
LTYPE
5
14
100
AcDbSymbolTableRecord
100
AcDbLinetypeTableRecord
2
BYBLOCK
70
0
0
LTYPE
5
15
100
AcDbSymbolTableRecord
100
AcDbLinetypeTableRecord
2
BYLAYER
70
0
0
LTYPE
5
16
100
AcDbSymbolTableRecord
100
AcDbLinetypeTableRecord
2
DASHED
70
0
3
Dashed __ __ __ __ __ __ __ __ __ __ __ __ __ _
72
65
73
2
40
0.75
49
0.5
74
0
49
-0.25
74
0
0
ENDTAB
0
TABLE
2
LAYER
5
2
100
AcDbSymbolTable
70
3
0
LAYER
5
50
100
AcDbSymbolTableRecord
100
AcDbLayerTableRecord
2
1
70
0
62
7
6
DASHED
0
LAYER
5
51
100
AcDbSymbolTableRecord
100
AcDbLayerTableRecord
2
0
70
0
62
7
6
CONTINUOUS
0
ENDTAB
0
TABLE
2
STYLE
5
3
100
AcDbSymbolTable
70
1
0
STYLE
5
11
100
AcDbSymbolTableRecord
100
AcDbTextStyleTableRecord
2
STANDARD
70
0
0
ENDTAB
0
TABLE
2
VIEW
5
6
100
AcDbSymbolTable
70
0
0
ENDTAB
0
TABLE
2
UCS
5
7
100
AcDbSymbolTable
70
0
0
ENDTAB
0
TABLE
2
APPID
5
9
100
AcDbSymbolTable
70
2
0
APPID
5
12
100
AcDbSymbolTableRecord
100
AcDbRegAppTableRecord
2
ACAD
70
0
0
ENDTAB
0
TABLE
2
DIMSTYLE
5
A
100
AcDbSymbolTable
70
1
0
ENDTAB
0
TABLE
2
BLOCK_RECORD
5
1
100
AcDbSymbolTable
70
1
0
BLOCK_RECORD
5
1F
100
AcDbSymbolTableRecord
100
AcDbBlockTableRecord
2
*MODEL_SPACE
0
BLOCK_RECORD
5
1B
100
AcDbSymbolTableRecord
100
AcDbBlockTableRecord
2
*PAPER_SPACE
0
ENDTAB
0
ENDSEC
0
SECTION
2
BLOCKS
0
BLOCK
5
20
100
AcDbEntity
100
AcDbBlockBegin
2
*MODEL_SPACE
0
ENDBLK
5
21
100
AcDbEntity
100
AcDbBlockEnd
0
BLOCK
5
1C
100
AcDbEntity
100
AcDbBlockBegin
2
*PAPER_SPACE
0
ENDBLK
5
1D
100
AcDbEntity
100
AcDbBlockEnd
0
ENDSEC
0
SECTION
2
ENTITIES
0
LWPOLYLINE
5
100
100
AcDbEntity
8
0
100
AcDbPolyline
90
32
70
1
43
0.0
10
-36.696265512814875
20
-41.40632338339168
10
-67.439784096216485
20
-53.396600230808517
10
-68.246524922350432
20
-53.711237146008003
42
-0.48381955506992047
10
-72.983928308278919
20
-50.939489962793743
10
-73.693557891270132
20
-45.910502901809636
42
0.37372625829242678
10
-92.50717807717561
20
-29.56525251344739
10
-114.05305042611141
20
-29.56525251344738
42
-0.082287986720162812
10
-115.34321172443643
20
-29.351475410254224
10
-122.23948763718647
20
-27.001558744570108
42
-0.32098487050043378
10
-127.9978948782458
20
-18.955835088855608
10
-128.00662347618893
20
29.142869504252182
10
-127.37505042622462
20
30.703105268869439
42
-0.46504105902210108
10
-125.92116949015904
20
31.17778731930678
42
0.77606513806489552
10
-115.49496290936693
20
41.186072021181147
42
-0.46875252050788868
10
-114.40450349969582
20
44.060661546075295
10
-66.088358923311347
20
60.693597255079148
42
-0.41317064406330267
10
-63.548600065203772
20
59.460256857488787
42
0.87659768984590847
10
-49.863792566323056
20
62.288188200106951
42
-0.43559678270152402
10
-47.869039440883441
20
64.432963780053186
10
-28.059451456644098
20
64.432963780053186
42
-0.41351120727229412
10
-24.056878122876864
20
60.445150840492595
10
-24.021542173893824
20
1.4412635119294392
42
-0.41421356237308721
10
-24.52124264681899
20
0.94096416418015472
10
-25.021243555171054
20
0.94066472617040042
42
0.41421348929513047
10
-29.01884733916992
20
-3.061729057808924
10
-29.009267756611067
20
-19.064361282398423
42
0.41421363545106221
10
-25.006872974019227
20
-23.061966063814694
10
-24.50687344034062
20
-23.061666626628199
42
-0.41421319839067622
10
-24.006574092963824
20
-23.561366478196533
10
-24.00398213185948
20
-27.880454780585076
42
-0.53881575355150124
10
-26.7928804125551
20
-29.719487924621745
42
0.6851412365428744
10
-35.602109369500425
20
-38.715700177055496
42
-0.43029924641832884
0
CIRCLE
5
101
100
AcDbEntity
8
0
100
AcDbCircle
10
118.17944293682035
20
-1.4011283710121614
30
6.1461349670707601e-15
40
1.7000000000000002
210
-1.2246467991473532e-16
220
0
230
-1
0
CIRCLE
5
102
100
AcDbEntity
8
0
100
AcDbCircle
10
49.997894905145671
20
-41.817022147352816
30
6.40053195212553e-15
40
1.7000000000000002
210
-1.2246467991473532e-16
220
0
230
-1
0
CIRCLE
5
103
100
AcDbEntity
8
0
100
AcDbCircle
10
29.997894905145834
20
15.938796340174552
30
5.8941286469248676e-15
40
1.7000000000000004
210
-1.2246467991473532e-16
220
0
230
-1
0
CIRCLE
5
104
100
AcDbEntity
8
0
100
AcDbCircle
10
-98
20
45
30
0
40
1.6999999999999948
210
0
220
0
230
1
0
LWPOLYLINE
5
105
100
AcDbEntity
8
0
100
AcDbPolyline
90
4
70
1
43
0.0
10
-42.099955987000008
20
46.637000849366181
10
-42.099955987000008
20
32.837000849366184
10
-55.899955986999998
20
32.837000849366184
10
-55.899955986999998
20
46.637000849366181
0
ENDSEC
0
SECTION
2
OBJECTS
0
DICTIONARY
5
C
100
AcDbDictionary
3
ACAD_GROUP
350
D
3
ACAD_MLINESTYLE
350
17
0
DICTIONARY
5
D
100
AcDbDictionary
0
DICTIONARY
5
1A
330
C
100
AcDbDictionary
0
DICTIONARY
5
17
100
AcDbDictionary
0
ENDSEC
0
EOF
