0
SECTION
2
HEADER
9
$INSUNITS
70
4
9
$ACADVER
1
AC1014
9
$HANDSEED
5
FFFF
0
ENDSEC
0
SECTION
2
TABLES
0
TABLE
2
VPORT
5
8
100
AcDbSymbolTable
0
ENDTAB
0
TABLE
2
LTYPE
5
5
100
AcDbSymbolTable
0
LTYPE
5
14
100
AcDbSymbolTableRecord
100
AcDbLinetypeTableRecord
2
BYBLOCK
70
0
0
LTYPE
5
15
100
AcDbSymbolTableRecord
100
AcDbLinetypeTableRecord
2
BYLAYER
70
0
0
LTYPE
5
16
100
AcDbSymbolTableRecord
100
AcDbLinetypeTableRecord
2
DASHED
70
0
3
Dashed __ __ __ __ __ __ __ __ __ __ __ __ __ _
72
65
73
2
40
0.75
49
0.5
74
0
49
-0.25
74
0
0
ENDTAB
0
TABLE
2
LAYER
5
2
100
AcDbSymbolTable
70
3
0
LAYER
5
50
100
AcDbSymbolTableRecord
100
AcDbLayerTableRecord
2
1
70
0
62
7
6
DASHED
0
LAYER
5
51
100
AcDbSymbolTableRecord
100
AcDbLayerTableRecord
2
0
70
0
62
7
6
CONTINUOUS
0
ENDTAB
0
TABLE
2
STYLE
5
3
100
AcDbSymbolTable
70
1
0
STYLE
5
11
100
AcDbSymbolTableRecord
100
AcDbTextStyleTableRecord
2
STANDARD
70
0
0
ENDTAB
0
TABLE
2
VIEW
5
6
100
AcDbSymbolTable
70
0
0
ENDTAB
0
TABLE
2
UCS
5
7
100
AcDbSymbolTable
70
0
0
ENDTAB
0
TABLE
2
APPID
5
9
100
AcDbSymbolTable
70
2
0
APPID
5
12
100
AcDbSymbolTableRecord
100
AcDbRegAppTableRecord
2
ACAD
70
0
0
ENDTAB
0
TABLE
2
DIMSTYLE
5
A
100
AcDbSymbolTable
70
1
0
ENDTAB
0
TABLE
2
BLOCK_RECORD
5
1
100
AcDbSymbolTable
70
1
0
BLOCK_RECORD
5
1F
100
AcDbSymbolTableRecord
100
AcDbBlockTableRecord
2
*MODEL_SPACE
0
BLOCK_RECORD
5
1B
100
AcDbSymbolTableRecord
100
AcDbBlockTableRecord
2
*PAPER_SPACE
0
ENDTAB
0
ENDSEC
0
SECTION
2
BLOCKS
0
BLOCK
5
20
100
AcDbEntity
100
AcDbBlockBegin
2
*MODEL_SPACE
0
ENDBLK
5
21
100
AcDbEntity
100
AcDbBlockEnd
0
BLOCK
5
1C
100
AcDbEntity
100
AcDbBlockBegin
2
*PAPER_SPACE
0
ENDBLK
5
1D
100
AcDbEntity
100
AcDbBlockEnd
0
ENDSEC
0
SECTION
2
ENTITIES
0
POINT
5
100
100
AcDbEntity
8
0
100
AcDbPoint
10
0
20
0
30
0
0
LWPOLYLINE
5
101
100
AcDbEntity
8
0
100
AcDbPolyline
90
24
70
1
43
0.0
10
35.124548706432286
20
52.999736598427418
10
35.071658459704366
20
-35.316277221231225
42
0.53881616163956036
10
37.860559065392245
20
-37.155309367245223
42
-0.68514170127337237
10
46.669797676354662
20
-46.151520095230467
42
0.43029924641832817
10
47.763953819669112
20
-48.842143301566672
10
78.507472403070977
20
-60.832420148983594
42
0.37193876720354951
10
83.433786910634893
20
-59.082719659630172
42
-0.58902677141162463
10
95.580381191221235
20
-59.218505196108325
42
0.36433531269613079
10
100.36517822654281
20
-61.113132404590573
10
129.61644048824448
20
-51.362711650689967
10
132.27477899360707
20
-48.833664072642193
42
0.48065080563928975
10
132.00716530730273
20
-45.721568510148174
42
-0.80255702320071509
10
136.76172786158909
20
-33.489286963783165
42
0.45957469129796508
10
139.06558318510073
20
-31.512831757106341
10
139.07431178304387
20
21.707049586077723
10
138.44273873307958
20
23.267285350694994
42
0.46504105902210158
10
136.98885779701396
20
23.741967401132349
42
-0.7760651380648953
10
126.56265121622177
20
33.750252103006787
42
0.46875252050788702
10
125.47219180655065
20
36.624841627900949
10
77.156047230165811
20
53.257777336904937
42
0.41317064406330184
10
74.616288372058222
20
52.024436939314569
42
-0.87659768984590825
10
60.931480873177399
20
54.852368281932755
42
0.43559678270152385
10
58.936727747737763
20
56.997143861879003
10
39.12713976349827
20
56.997143861879003
42
0.4142135623730937
0
LWPOLYLINE
5
102
100
AcDbEntity
8
0
100
AcDbPolyline
90
4
70
1
43
0.0
10
73.123510976000006
20
21.792902303000005
10
87.023510975999997
20
21.792902303000005
10
87.023510975999997
20
7.8929023029999996
10
73.123510976000006
20
7.8929023029999996
0
LWPOLYLINE
5
103
100
AcDbEntity
8
0
100
AcDbPolyline
90
4
70
1
43
0.0
10
57.015583212000003
20
53.97246509
10
57.015583212000003
20
40.072465090000009
10
43.115583211999997
20
40.072465090000009
10
43.115583211999997
20
53.97246509
0
LWPOLYLINE
5
104
100
AcDbEntity
8
0
100
AcDbPolyline
90
4
70
1
43
0.0
10
65.587369606999999
20
2.9439791209999999
10
51.687369607000008
20
2.9439791209999999
10
51.687369607000008
20
16.843979121
10
65.587369606999999
20
16.843979121
0
LWPOLYLINE
5
105
100
AcDbEntity
8
0
100
AcDbPolyline
90
4
70
1
43
0.0
10
99.70493478100002
20
-20.629227838999999
10
113.604934781
20
-20.629227838999999
10
113.604934781
20
-34.529227839000001
10
99.70493478100002
20
-34.529227839000001
0
LWPOLYLINE
5
106
100
AcDbEntity
8
0
100
AcDbPolyline
90
4
70
1
43
0.0
10
77.720983654999998
20
-17.539584996999999
10
91.620983655000003
20
-17.539584996999999
10
91.620983655000003
20
-31.439584997000001
10
77.720983654999998
20
-31.439584997000001
0
LWPOLYLINE
5
107
100
AcDbEntity
8
0
100
AcDbPolyline
90
4
70
1
43
0.0
10
106.74475750600001
20
-41.742682500000001
10
106.74475750600001
20
-55.642682500000006
10
92.844757506000008
20
-55.642682500000006
10
92.844757506000008
20
-41.742682500000001
0
LWPOLYLINE
5
108
100
AcDbEntity
8
0
100
AcDbPolyline
90
4
70
1
43
0.0
10
92.844757506000008
20
-41.742682500000001
10
106.74475750600001
20
-41.742682500000001
10
106.74475750600001
20
-55.642682500000006
10
92.844757506000008
20
-55.642682500000006
0
LWPOLYLINE
5
109
100
AcDbEntity
8
0
100
AcDbPolyline
90
4
70
1
43
0.0
10
128.45963424300004
20
-37.127042963999997
10
128.45963424300004
20
-51.027042964000003
10
114.55963424300002
20
-51.027042964000003
10
114.55963424300002
20
-37.127042963999997
0
LWPOLYLINE
5
110
100
AcDbEntity
8
0
100
AcDbPolyline
90
4
70
1
43
0.0
10
50.583405725000006
20
19.033760514000001
10
36.683405725
20
19.033760514000001
10
36.683405725
20
32.933760513999999
10
50.583405725000006
20
32.933760513999999
0
LWPOLYLINE
5
111
100
AcDbEntity
8
0
100
AcDbPolyline
90
4
70
1
43
0.0
10
114.55963424300002
20
-51.027042964000003
10
114.55963424300002
20
-37.127042963999997
10
128.45963424300004
20
-37.127042963999997
10
128.45963424300004
20
-51.027042964000003
0
LWPOLYLINE
5
112
100
AcDbEntity
8
0
100
AcDbPolyline
90
4
70
1
43
0.0
10
72.019547094000004
20
-21.017316303000001
10
58.119547093999998
20
-21.017316303000001
10
58.119547093999998
20
-7.1173163030000008
10
72.019547094000004
20
-7.1173163030000008
0
LWPOLYLINE
5
113
100
AcDbEntity
8
0
100
AcDbPolyline
90
4
70
1
43
0.0
10
84.760806380000005
20
-52.553039659000007
10
70.86080638
20
-52.553039659000007
10
70.86080638
20
-38.653039659000001
10
84.760806380000005
20
-38.653039659000001
0
LWPOLYLINE
5
114
100
AcDbEntity
8
0
100
AcDbPolyline
90
4
70
1
43
0.0
10
58.119547093999998
20
37.882683696999997
10
72.019547094000004
20
37.882683696999997
10
72.019547094000004
20
23.982683696999999
10
58.119547093999998
20
23.982683696999999
0
LWPOLYLINE
5
115
100
AcDbEntity
8
0
100
AcDbPolyline
90
4
70
1
43
0.0
10
72.019547094000004
20
-7.1173163030000008
10
72.019547094000004
20
-21.017316303000001
10
58.119547093999998
20
-21.017316303000001
10
58.119547093999998
20
-7.1173163030000008
0
LWPOLYLINE
5
116
100
AcDbEntity
8
0
100
AcDbPolyline
90
4
70
1
43
0.0
10
77.720983654999998
20
-17.539584996999999
10
91.620983655000003
20
-17.539584996999999
10
91.620983655000003
20
-31.439584997000001
10
77.720983654999998
20
-31.439584997000001
0
LWPOLYLINE
5
117
100
AcDbEntity
8
0
100
AcDbPolyline
90
4
70
1
43
0.0
10
51.687369607000008
20
16.843979121
10
65.587369606999999
20
16.843979121
10
65.587369606999999
20
2.9439791209999999
10
51.687369607000008
20
2.9439791209999999
0
LWPOLYLINE
5
118
100
AcDbEntity
8
0
100
AcDbPolyline
90
4
70
1
43
0.0
10
113.604934781
20
-20.629227838999999
10
113.604934781
20
-34.529227839000001
10
99.70493478100002
20
-34.529227839000001
10
99.70493478100002
20
-20.629227838999999
0
LWPOLYLINE
5
119
100
AcDbEntity
8
0
100
AcDbPolyline
90
4
70
1
43
0.0
10
121.41981151800002
20
-16.013588301999999
10
135.31981151799999
20
-16.013588301999999
10
135.31981151799999
20
-29.913588302000001
10
121.41981151800002
20
-29.913588302000001
0
LWPOLYLINE
5
120
100
AcDbEntity
8
0
100
AcDbPolyline
90
4
70
1
43
0.0
10
121.41981151800002
20
-16.013588301999999
10
135.31981151799999
20
-16.013588301999999
10
135.31981151799999
20
-29.913588302000001
10
121.41981151800002
20
-29.913588302000001
0
LWPOLYLINE
5
121
100
AcDbEntity
8
0
100
AcDbPolyline
90
4
70
1
43
0.0
10
50.583405725000006
20
32.933760513999999
10
50.583405725000006
20
19.033760514000001
10
36.683405725
20
19.033760514000001
10
36.683405725
20
32.933760513999999
0
LWPOLYLINE
5
122
100
AcDbEntity
8
0
100
AcDbPolyline
90
4
70
1
43
0.0
10
58.119547093999998
20
37.882683696999997
10
72.019547094000004
20
37.882683696999997
10
72.019547094000004
20
23.982683696999999
10
58.119547093999998
20
23.982683696999999
0
LWPOLYLINE
5
123
100
AcDbEntity
8
0
100
AcDbPolyline
90
4
70
1
43
0.0
10
84.760806380000005
20
-38.653039659000001
10
84.760806380000005
20
-52.553039659000007
10
70.86080638
20
-52.553039659000007
10
70.86080638
20
-38.653039659000001
0
LWPOLYLINE
5
124
100
AcDbEntity
8
0
100
AcDbPolyline
90
4
70
1
43
0.0
10
51.259369819000007
20
-28.230770965000005
10
65.159369819000005
20
-28.230770965000005
10
65.159369819000005
20
-42.130770965000004
10
51.259369819000007
20
-42.130770965000004
0
LWPOLYLINE
5
125
100
AcDbEntity
8
0
100
AcDbPolyline
90
4
70
1
43
0.0
10
51.259369819000007
20
-42.130770965000004
10
51.259369819000007
20
-28.230770965000005
10
65.159369819000005
20
-28.230770965000005
10
65.159369819000005
20
-42.130770965000004
0
LWPOLYLINE
5
126
100
AcDbEntity
8
0
100
AcDbPolyline
90
4
70
1
43
0.0
10
87.023510975999997
20
7.8929023029999996
10
73.123510976000006
20
7.8929023029999996
10
73.123510976000006
20
21.792902303000005
10
87.023510975999997
20
21.792902303000005
0
LWPOLYLINE
5
127
100
AcDbEntity
8
0
100
AcDbPolyline
90
4
70
1
43
0.0
10
43.115583211999997
20
53.97246509
10
57.015583212000003
20
53.97246509
10
57.015583212000003
20
40.072465090000009
10
43.115583211999997
20
40.072465090000009
0
ENDSEC
0
SECTION
2
OBJECTS
0
DICTIONARY
5
C
100
AcDbDictionary
3
ACAD_GROUP
350
D
3
ACAD_MLINESTYLE
350
17
0
DICTIONARY
5
D
100
AcDbDictionary
0
DICTIONARY
5
1A
330
C
100
AcDbDictionary
0
DICTIONARY
5
17
100
AcDbDictionary
0
ENDSEC
0
EOF
