0
SECTION
2
HEADER
9
$INSUNITS
70
4
9
$ACADVER
1
AC1014
9
$HANDSEED
5
FFFF
0
ENDSEC
0
SECTION
2
TABLES
0
TABLE
2
VPORT
5
8
100
AcDbSymbolTable
0
ENDTAB
0
TABLE
2
LTYPE
5
5
100
AcDbSymbolTable
0
LTYPE
5
14
100
AcDbSymbolTableRecord
100
AcDbLinetypeTableRecord
2
BYBLOCK
70
0
0
LTYPE
5
15
100
AcDbSymbolTableRecord
100
AcDbLinetypeTableRecord
2
BYLAYER
70
0
0
LTYPE
5
16
100
AcDbSymbolTableRecord
100
AcDbLinetypeTableRecord
2
DASHED
70
0
3
Dashed __ __ __ __ __ __ __ __ __ __ __ __ __ _
72
65
73
2
40
0.75
49
0.5
74
0
49
-0.25
74
0
0
ENDTAB
0
TABLE
2
LAYER
5
2
100
AcDbSymbolTable
70
3
0
LAYER
5
50
100
AcDbSymbolTableRecord
100
AcDbLayerTableRecord
2
1
70
0
62
7
6
DASHED
0
LAYER
5
51
100
AcDbSymbolTableRecord
100
AcDbLayerTableRecord
2
0
70
0
62
7
6
CONTINUOUS
0
ENDTAB
0
TABLE
2
STYLE
5
3
100
AcDbSymbolTable
70
1
0
STYLE
5
11
100
AcDbSymbolTableRecord
100
AcDbTextStyleTableRecord
2
STANDARD
70
0
0
ENDTAB
0
TABLE
2
VIEW
5
6
100
AcDbSymbolTable
70
0
0
ENDTAB
0
TABLE
2
UCS
5
7
100
AcDbSymbolTable
70
0
0
ENDTAB
0
TABLE
2
APPID
5
9
100
AcDbSymbolTable
70
2
0
APPID
5
12
100
AcDbSymbolTableRecord
100
AcDbRegAppTableRecord
2
ACAD
70
0
0
ENDTAB
0
TABLE
2
DIMSTYLE
5
A
100
AcDbSymbolTable
70
1
0
ENDTAB
0
TABLE
2
BLOCK_RECORD
5
1
100
AcDbSymbolTable
70
1
0
BLOCK_RECORD
5
1F
100
AcDbSymbolTableRecord
100
AcDbBlockTableRecord
2
*MODEL_SPACE
0
BLOCK_RECORD
5
1B
100
AcDbSymbolTableRecord
100
AcDbBlockTableRecord
2
*PAPER_SPACE
0
ENDTAB
0
ENDSEC
0
SECTION
2
BLOCKS
0
BLOCK
5
20
100
AcDbEntity
100
AcDbBlockBegin
2
*MODEL_SPACE
0
ENDBLK
5
21
100
AcDbEntity
100
AcDbBlockEnd
0
BLOCK
5
1C
100
AcDbEntity
100
AcDbBlockBegin
2
*PAPER_SPACE
0
ENDBLK
5
1D
100
AcDbEntity
100
AcDbBlockEnd
0
ENDSEC
0
SECTION
2
ENTITIES
0
LWPOLYLINE
5
100
100
AcDbEntity
8
0
100
AcDbPolyline
90
32
70
1
43
0.0
10
47.763953819669112
20
-48.842143301566672
10
78.507472403070977
20
-60.832420148983594
42
0.37193876720354951
10
83.433786910634893
20
-59.082719659630172
42
-0.58902677141162463
10
95.580381191221235
20
-59.218505196108325
42
0.36433531269613079
10
100.36517822654281
20
-61.113132404590573
10
129.61644048824448
20
-51.362711650689967
10
132.27477899360707
20
-48.833664072642193
42
0.48065080563928975
10
132.00716530730273
20
-45.721568510148174
42
-0.80255702320071509
10
136.76172786158909
20
-33.489286963783165
42
0.45957469129796508
10
139.06558318510073
20
-31.512831757106341
10
139.07431178304387
20
21.707049586077723
10
138.44273873307958
20
23.267285350694994
42
0.46504105902210158
10
136.98885779701396
20
23.741967401132349
42
-0.7760651380648953
10
126.56265121622177
20
33.750252103006787
42
0.46875252050788702
10
125.47219180655065
20
36.624841627900949
10
77.156047230165811
20
53.257777336904937
42
0.41317064406330184
10
74.616288372058222
20
52.024436939314569
42
-0.87659768984590825
10
60.931480873177399
20
54.852368281932755
42
0.43559678270152385
10
58.936727747737763
20
56.997143861879003
10
39.12713976349827
20
56.997143861879003
42
0.41351120727229412
10
35.124566429731004
20
53.009330922318384
10
35.089230480747972
20
-5.9945564062452261
42
0.41421356237309503
10
35.588930953673142
20
-6.4948557539945151
10
36.088931862025191
20
-6.4951551920042601
42
-0.41421348929513047
10
40.086535646024103
20
-10.497548975983623
10
40.076956063465239
20
-26.500181200573248
42
-0.41421363545106288
10
36.074561280873368
20
-30.497785981989548
10
35.574561747194757
20
-30.497486544803056
42
0.41421319839066323
10
35.074262399817968
20
-30.997186396371387
10
35.071670438713632
20
-35.316274698759969
42
0.5388157535515008
10
37.860568719409251
20
-37.155307842796631
42
-0.68514123654287373
10
46.669797676354662
20
-46.151520095230467
42
0.43029924641832817
0
ENDSEC
0
SECTION
2
OBJECTS
0
DICTIONARY
5
C
100
AcDbDictionary
3
ACAD_GROUP
350
D
3
ACAD_MLINESTYLE
350
17
0
DICTIONARY
5
D
100
AcDbDictionary
0
DICTIONARY
5
1A
330
C
100
AcDbDictionary
0
DICTIONARY
5
17
100
AcDbDictionary
0
ENDSEC
0
EOF
